<?xml version="1.0" encoding="UTF-8" standalone="no"?>
<!-- Created with Inkscape (http://www.inkscape.org/) -->

<svg
   width="33.477551mm"
   height="33.866684mm"
   viewBox="0 0 33.477551 33.866684"
   version="1.1"
   id="svg1"
   xmlns="http://www.w3.org/2000/svg"
   xmlns:svg="http://www.w3.org/2000/svg">
  <defs
     id="defs1" />
  <g
     id="layer1"
     transform="translate(-92.466395,-6.8736871)">
    <path
       d="m 125.85712,24.968208 a 8.4589014,11.683166 0 0 1 -8.4031,10.798824 8.4589014,11.683166 0 0 1 -8.30957,-9.625252 8.4401207,8.2891579 0 0 1 -0.24185,-0.129708 8.4589014,13.51753 0 0 1 -8.36641,11.589473 8.4589014,13.51753 0 0 1 -8.069797,-9.505879 9.2637186,13.195867 0 0 0 9.195307,11.963094 9.2637186,13.195867 0 0 0 6.94324,-4.502568 9.7900677,14.169731 0 0 0 7.5489,5.18418 9.7900677,14.169731 0 0 0 9.7901,-14.169678 9.7900677,14.169731 0 0 0 -0.0868,-1.602486 z"
       style="stroke-width:2.75159;stroke-linecap:round;stroke-linejoin:round;paint-order:stroke fill markers"
       id="path31" />
    <ellipse
       style="fill:#000000;fill-opacity:1;stroke:none;stroke-width:2.75159;stroke-linecap:round;stroke-linejoin:round;paint-order:stroke fill markers"
       id="path25"
       cx="116.38374"
       cy="13.965211"
       rx="3.1580861"
       ry="5.4536428" />
    <ellipse
       style="fill:#000000;fill-opacity:1;stroke:none;stroke-width:2.75159;stroke-linecap:round;stroke-linejoin:round;paint-order:stroke fill markers"
       id="path24"
       cx="101.4595"
       cy="12.570796"
       rx="3.5089848"
       ry="5.6971087" />
  </g>
</svg>
