<?xml version="1.0" encoding="UTF-8" standalone="no"?>
<!-- Created with Inkscape (http://www.inkscape.org/) -->

<svg
   width="127.99999"
   height="127.99999"
   viewBox="0 0 33.866664 33.866664"
   version="1.1"
   id="svg1"
   xml:space="preserve"
   xmlns:xlink="http://www.w3.org/1999/xlink"
   xmlns="http://www.w3.org/2000/svg"
   xmlns:svg="http://www.w3.org/2000/svg"><defs
     id="defs1"><linearGradient
       id="linearGradient166"><stop
         style="stop-color:#a50c11;stop-opacity:1;"
         offset="0"
         id="stop176" /><stop
         style="stop-color:#f02224;stop-opacity:1;"
         offset="0.14453669"
         id="stop177" /><stop
         style="stop-color:#ed2023;stop-opacity:1;"
         offset="0.30250785"
         id="stop178" /><stop
         style="stop-color:#ff412f;stop-opacity:1;"
         offset="0.45250034"
         id="stop179" /><stop
         style="stop-color:#ff3b39;stop-opacity:1;"
         offset="0.61598748"
         id="stop180" /><stop
         style="stop-color:#ff4b48;stop-opacity:1;"
         offset="0.77780533"
         id="stop181" /><stop
         style="stop-color:#ff87a8;stop-opacity:1;"
         offset="0.90125394"
         id="stop182" /><stop
         style="stop-color:#ffafeb;stop-opacity:1;"
         offset="1"
         id="stop183" /></linearGradient><linearGradient
       id="linearGradient166-1"><stop
         style="stop-color:#d31a22;stop-opacity:1;"
         offset="0"
         id="stop167" /><stop
         style="stop-color:#fc1b22;stop-opacity:1;"
         offset="0.0263331"
         id="stop11" /><stop
         style="stop-color:#ff2930;stop-opacity:1;"
         offset="0.11489595"
         id="stop9" /><stop
         style="stop-color:#ff393d;stop-opacity:1;"
         offset="0.2611734"
         id="stop8" /><stop
         style="stop-color:#ff4742;stop-opacity:1;"
         offset="0.43471831"
         id="stop7" /><stop
         style="stop-color:#ff5e49;stop-opacity:1;"
         offset="0.64809638"
         id="stop5" /><stop
         style="stop-color:#ff5c59;stop-opacity:1;"
         offset="0.76213276"
         id="stop6" /><stop
         style="stop-color:#ff7572;stop-opacity:1;"
         offset="0.88872087"
         id="stop3" /><stop
         style="stop-color:#ffcff7;stop-opacity:1;"
         offset="0.93743807"
         id="stop2" /><stop
         style="stop-color:#ffffff;stop-opacity:1;"
         offset="0.97578329"
         id="stop1" /><stop
         style="stop-color:#ffc5fd;stop-opacity:0.96862745;"
         offset="1"
         id="stop166" /></linearGradient><linearGradient
       id="linearGradient161"><stop
         style="stop-color:#ff2a47;stop-opacity:1;"
         offset="0"
         id="stop162" /><stop
         style="stop-color:#ff2946;stop-opacity:1;"
         offset="0.27429467"
         id="stop165" /><stop
         style="stop-color:#f2314a;stop-opacity:1;"
         offset="0.47178686"
         id="stop163" /><stop
         style="stop-color:#d42a42;stop-opacity:1;"
         offset="0.76959246"
         id="stop164" /><stop
         style="stop-color:#b00d13;stop-opacity:1;"
         offset="0.88159198"
         id="stop14" /><stop
         style="stop-color:#731b28;stop-opacity:1;"
         offset="1"
         id="stop161" /></linearGradient><linearGradient
       xlink:href="#linearGradient166"
       id="linearGradient167"
       x1="-165.38858"
       y1="262.58514"
       x2="-106.31316"
       y2="376.8949"
       gradientUnits="userSpaceOnUse" /><linearGradient
       xlink:href="#linearGradient166-1"
       id="linearGradient176"
       x1="-85.158928"
       y1="392.45059"
       x2="-164.58247"
       y2="237.86778"
       gradientUnits="userSpaceOnUse" /><linearGradient
       xlink:href="#linearGradient166-1"
       id="linearGradient13"
       x1="18.116592"
       y1="313.53015"
       x2="-37.847553"
       y2="199.71227"
       gradientUnits="userSpaceOnUse" /><linearGradient
       xlink:href="#linearGradient166-1"
       id="linearGradient14"
       gradientUnits="userSpaceOnUse"
       x1="-85.158928"
       y1="392.45059"
       x2="-164.58247"
       y2="237.86778"
       gradientTransform="translate(216.29937,-108.13769)" /><radialGradient
       xlink:href="#linearGradient161"
       id="radialGradient14"
       cx="43.101845"
       cy="231.41759"
       fx="43.101845"
       fy="231.41759"
       r="64.74649"
       gradientTransform="matrix(-1.6775712,-0.38330626,0.40316873,-1.7645008,101.68257,611.38522)"
       gradientUnits="userSpaceOnUse" /></defs><g
     id="layer1"><g
       id="g1"
       transform="matrix(0.09601967,0,0,0.09601967,19.269843,-8.5058176)"><path
         style="fill:url(#linearGradient13);fill-opacity:1;stroke-width:0.465;stroke-linecap:round;stroke-linejoin:round;paint-order:stroke fill markers"
         d="m -122.26339,241.75275 166.579423,-82.99951 30.647968,-8.47895 54.956289,89.74795 -28.66165,38.11059 -5.141604,-1.31935 -160.477333,80.23664 -57.903093,-115.29737"
         id="path161" /><path
         style="fill:#ae1528;fill-opacity:1;stroke-width:0.465;stroke-linecap:round;stroke-linejoin:round;paint-order:stroke fill markers"
         d="m -179.57879,245.49436 18.44938,-3.81311 20.97302,5.93652 21.02723,15.02195 18.48815,22.30748 13.761877,26.9875 7.194415,27.857 -0.01386,26.63126 -7.216836,20.63292 -13.668586,13.14384 c 0,0 -18.05092,3.66369 -18.04573,3.66631 0.005,0.003 -21.43805,-5.77824 -21.43805,-5.77824 l -20.99018,-15.01058 -18.47326,-22.28445 -13.69791,-26.79919 -7.37655,-28.40887 -0.007,-25.93954 7.59735,-21.28349 z"
         id="path158" /><path
         style="fill:url(#linearGradient167);stroke-width:0.465;stroke-linecap:round;stroke-linejoin:round;paint-order:stroke fill markers"
         d="m -160.79427,261.58654 -9.18861,1.9972 -11.43972,12.10304 -4.90049,14.02292 -0.003,19.79874 5.62779,21.74084 10.55426,20.6375 14.11364,17.02813 16.04713,11.46355 16.09885,4.41204 14.32769,-2.78358 5.59188,-5.59186 -4.69661,0.95969 -16.05333,-4.52961 -16.18221,-11.57891 -14.12962,-17.05237 -10.60675,-20.90208 -5.34597,-20.74648 v -20.89597 l 5.34796,-15.50755 z"
         id="path157" /><path
         style="fill:url(#linearGradient176);fill-opacity:1;stroke-width:0.465;stroke-linecap:round;stroke-linejoin:round;paint-order:stroke fill markers"
         d="m -179.57879,245.49436 15.34532,-7.68628 18.28187,-3.66268 21.14105,5.7684 20.16118,14.55238 18.143369,21.52879 13.477446,25.59836 8.543515,29.03516 0.131045,27.27841 -7.275319,21.55407 -13.529617,12.98961 -15.538779,7.77338 13.782287,-13.16806 7.216835,-20.58493 0.01387,-26.67926 -7.194415,-27.85701 -13.761877,-26.9875 -18.48378,-22.30399 -21.09889,-15.03891 -20.90655,-5.92288 z"
         id="path159" /><path
         style="fill:url(#radialGradient14);fill-opacity:1;stroke-width:0.465;stroke-linecap:round;stroke-linejoin:round;paint-order:stroke fill markers"
         d="m 22.996218,150.53915 13.747824,-13.18828 21.274563,-5.6633 36.604649,11.64529 50.685716,71.44276 -1.17017,39.988 -12.83385,29.3548 -15.60871,7.92543 -18.433812,3.82402 -23.608729,-7.82544 22.463337,-11.22895 10.363254,-9.94463 5.24716,-15.34957 0.10812,-19.48874 -5.44655,-20.90208 -10.693251,-20.57489 -13.133583,-15.83426 -14.29979,-10.26746 -16.931957,-5.36226 -13.422247,2.76206 -22.092196,11.04292 z"
         id="path160" /><path
         style="fill:url(#linearGradient14);fill-opacity:1;stroke-width:0.465;stroke-linecap:round;stroke-linejoin:round;paint-order:stroke fill markers"
         d="m 36.720577,137.35667 15.34532,-7.68628 18.28187,-3.66268 21.141057,5.7684 20.161176,14.55238 18.14336,21.52879 13.47745,25.59836 8.54352,29.03516 0.13104,27.27841 -7.27532,21.55407 -13.52962,12.98961 -15.53877,7.77338 13.78228,-13.16806 7.21684,-20.58493 0.0139,-26.67926 -7.19442,-27.85701 -13.76187,-26.9875 -18.483776,-22.30399 -21.098897,-15.03891 -20.90655,-5.92288 z"
         id="path159-7" /></g></g></svg>
